<svg width="27.000000" height="16.000000" viewBox="0 0 27 16" fill="none" xmlns="http://www.w3.org/2000/svg" xmlns:xlink="http://www.w3.org/1999/xlink">
	<desc>
			Created with Pixso.
	</desc>
	<defs>
		<linearGradient id="paint_linear_2_620_0" x1="12.999996" y1="-10.000000" x2="12.999996" y2="26.000000" gradientUnits="userSpaceOnUse">
			<stop stop-color="#ED0E98"/>
			<stop offset="1.000000" stop-color="#FE5A2D"/>
		</linearGradient>
	</defs>
	<path id="AC" d="M19.46 1.87C20.13 1.58 20.89 1.43 21.72 1.43Q22.78 1.43 23.66 1.7C24.26 1.87 24.8 2.07 25.29 2.29L26.08 0.62C25.49 0.32 24.82 0.1 24.08 -0.06C23.33 -0.23 22.55 -0.31 21.74 -0.31C20.53 -0.31 19.45 -0.11 18.51 0.29C17.57 0.67 16.78 1.22 16.13 1.94C15.5 2.66 15.02 3.51 14.68 4.49C14.36 5.47 14.2 6.56 14.2 7.75Q14.2 10.21 14.99 12.04Q15.53 13.25 16.42 14.09Q16.87 14.52 17.41 14.85Q19.02 15.84 21.41 15.84C22.28 15.84 23.02 15.79 23.64 15.69C24.27 15.59 24.87 15.42 25.46 15.2L25.46 13.49C24.87 13.66 24.27 13.81 23.66 13.93C23.04 14.05 22.39 14.1 21.7 14.1Q19.9 14.1 18.69 13.33C17.89 12.82 17.29 12.09 16.88 11.13C16.49 10.18 16.29 9.06 16.29 7.77C16.29 6.79 16.41 5.91 16.66 5.13C16.91 4.34 17.27 3.67 17.74 3.13C18.21 2.57 18.78 2.15 19.46 1.87ZM9.33 10.76L11.22 15.62L13.27 15.62L7.15 -0.15L5.37 -0.15L-0.77 15.62L1.24 15.62L3.11 10.76L9.33 10.76ZM6.76 3.61C6.86 3.92 6.93 4.13 6.98 4.25L8.74 9L3.77 9L5.55 4.25Q5.64 3.98 5.75 3.61C5.83 3.36 5.91 3.09 5.99 2.8C6.08 2.49 6.16 2.19 6.23 1.89C6.29 2.07 6.36 2.33 6.45 2.66C6.55 2.99 6.66 3.3 6.76 3.61Z" fill="url(#paint_linear_2_620_0)" fill-opacity="1.000000" fill-rule="evenodd"/>
</svg>
