<svg width="20.000000" height="21.000000" viewBox="0 0 20 21" fill="none" xmlns="http://www.w3.org/2000/svg" xmlns:xlink="http://www.w3.org/1999/xlink">
	<desc>
			Created with Pixso.
	</desc>
	<defs>
		<linearGradient id="paint_linear_2_590_0" x1="10.000004" y1="1.000000" x2="10.000004" y2="19.000006" gradientUnits="userSpaceOnUse">
			<stop stop-color="#ED0E98"/>
			<stop offset="1.000000" stop-color="#FE5A2D"/>
		</linearGradient>
	</defs>
	<path id="Vector" d="M8.15 5.49C8.15 7.17 8.82 8.79 10.01 9.98C11.2 11.17 12.82 11.84 14.5 11.84C16.18 11.85 17.8 11.18 19 10C19 11.78 18.47 13.52 17.48 15C16.49 16.48 15.08 17.63 13.44 18.31C11.79 18.99 9.99 19.17 8.24 18.82C6.49 18.47 4.89 17.62 3.63 16.36C2.37 15.1 1.52 13.5 1.17 11.75C0.82 10.01 1 8.2 1.68 6.55C2.36 4.91 3.51 3.5 4.99 2.51C6.47 1.52 8.21 1 10 1C8.81 2.19 8.14 3.81 8.15 5.49Z" stroke="url(#paint_linear_2_590_0)" stroke-opacity="1.000000" stroke-width="2.000000" stroke-linejoin="round"/>
</svg>
