<svg width="26.000000" height="26.000000" viewBox="0 0 26 26" fill="none" xmlns="http://www.w3.org/2000/svg" xmlns:xlink="http://www.w3.org/1999/xlink">
	<desc>
			Created with Pixso.
	</desc>
	<defs>
		<linearGradient id="paint_linear_2_697_0" x1="13.000021" y1="7.666656" x2="13.000021" y2="18.333324" gradientUnits="userSpaceOnUse">
			<stop stop-color="#ED0E98"/>
			<stop offset="1.000000" stop-color="#FE5A2D"/>
		</linearGradient>
		<linearGradient id="paint_linear_2_698_0" x1="12.000000" y1="1.000000" x2="12.000000" y2="2.333333" gradientUnits="userSpaceOnUse">
			<stop stop-color="#ED0E98"/>
			<stop offset="1.000000" stop-color="#FE5A2D"/>
		</linearGradient>
		<linearGradient id="paint_linear_2_699_0" x1="12.000000" y1="23.666656" x2="12.000000" y2="24.999990" gradientUnits="userSpaceOnUse">
			<stop stop-color="#ED0E98"/>
			<stop offset="1.000000" stop-color="#FE5A2D"/>
		</linearGradient>
		<linearGradient id="paint_linear_2_700_0" x1="1.666667" y1="13.000000" x2="1.666667" y2="15.000000" gradientUnits="userSpaceOnUse">
			<stop stop-color="#ED0E98"/>
			<stop offset="1.000000" stop-color="#FE5A2D"/>
		</linearGradient>
		<linearGradient id="paint_linear_2_701_0" x1="24.333353" y1="13.000000" x2="24.333353" y2="15.000000" gradientUnits="userSpaceOnUse">
			<stop stop-color="#ED0E98"/>
			<stop offset="1.000000" stop-color="#FE5A2D"/>
		</linearGradient>
		<linearGradient id="paint_linear_2_702_0" x1="21.013998" y1="4.514648" x2="21.013998" y2="5.457315" gradientUnits="userSpaceOnUse">
			<stop stop-color="#ED0E98"/>
			<stop offset="1.000000" stop-color="#FE5A2D"/>
		</linearGradient>
		<linearGradient id="paint_linear_2_703_0" x1="4.985982" y1="20.542633" x2="4.985982" y2="21.485300" gradientUnits="userSpaceOnUse">
			<stop stop-color="#ED0E98"/>
			<stop offset="1.000000" stop-color="#FE5A2D"/>
		</linearGradient>
		<linearGradient id="paint_linear_2_704_0" x1="4.985982" y1="4.514648" x2="4.985982" y2="5.457315" gradientUnits="userSpaceOnUse">
			<stop stop-color="#ED0E98"/>
			<stop offset="1.000000" stop-color="#FE5A2D"/>
		</linearGradient>
		<linearGradient id="paint_linear_2_705_0" x1="21.013996" y1="20.542633" x2="21.013996" y2="21.485300" gradientUnits="userSpaceOnUse">
			<stop stop-color="#ED0E98"/>
			<stop offset="1.000000" stop-color="#FE5A2D"/>
		</linearGradient>
	</defs>
	<path id="Vector" d="M16.77 16.77C17.77 15.77 18.33 14.41 18.33 13C18.33 11.58 17.77 10.22 16.77 9.22C15.77 8.22 14.41 7.66 13 7.66C11.58 7.66 10.22 8.22 9.22 9.22C8.22 10.22 7.66 11.58 7.66 13C7.66 14.41 8.22 15.77 9.22 16.77C10.22 17.77 11.58 18.33 13 18.33C14.41 18.33 15.77 17.77 16.77 16.77Z" stroke="url(#paint_linear_2_697_0)" stroke-opacity="1.000000" stroke-width="2.000000" stroke-linejoin="round"/>
	<path id="Vector" d="M13 1L13 2.33" stroke="url(#paint_linear_2_698_0)" stroke-opacity="1.000000" stroke-width="2.000000" stroke-linejoin="round" stroke-linecap="round"/>
	<path id="Vector" d="M13 23.66L13 25" stroke="url(#paint_linear_2_699_0)" stroke-opacity="1.000000" stroke-width="2.000000" stroke-linejoin="round" stroke-linecap="round"/>
	<path id="Vector" d="M1 13L2.33 13" stroke="url(#paint_linear_2_700_0)" stroke-opacity="1.000000" stroke-width="2.000000" stroke-linejoin="round" stroke-linecap="round"/>
	<path id="Vector" d="M23.66 13L25 13" stroke="url(#paint_linear_2_701_0)" stroke-opacity="1.000000" stroke-width="2.000000" stroke-linejoin="round" stroke-linecap="round"/>
	<path id="Vector" d="M21.48 4.51L20.54 5.45" stroke="url(#paint_linear_2_702_0)" stroke-opacity="1.000000" stroke-width="2.000000" stroke-linejoin="round" stroke-linecap="round"/>
	<path id="Vector" d="M5.45 20.54L4.51 21.48" stroke="url(#paint_linear_2_703_0)" stroke-opacity="1.000000" stroke-width="2.000000" stroke-linejoin="round" stroke-linecap="round"/>
	<path id="Vector" d="M4.51 4.51L5.45 5.45" stroke="url(#paint_linear_2_704_0)" stroke-opacity="1.000000" stroke-width="2.000000" stroke-linejoin="round" stroke-linecap="round"/>
	<path id="Vector" d="M20.54 20.54L21.48 21.48" stroke="url(#paint_linear_2_705_0)" stroke-opacity="1.000000" stroke-width="2.000000" stroke-linejoin="round" stroke-linecap="round"/>
</svg>
